<svg viewBox="0 0 72 72" xmlns="http://www.w3.org/2000/svg"><path d="m41.1835 14.216c-1.6784-.5099-3.4229-.7694-5.177-.77h-.036c-1.2518.0041-2.5.1334-3.726.386-4.3415.9348-8.1984 3.4083-10.859 6.964-2.0244 2.6542-3.3639 5.7662-3.9 9.061-1.0764 6.1694.6871 12.4953 4.8 17.218l.133.149c1.055 1.19 2.5 2.82 2.5 4.554l-.022 4.988c0 .5523-.4477 1-1 1 2.2224 1.1344 4.5781 1.9863 7.012 2.536 3.8115.8585 7.7771.7502 11.536-.315 3.215-15.177 2.366-31.029-1.261-45.771z" fill="#fff"/><path d="m48.8895 18.863c-2.1471-2.1598-4.794-3.7563-7.706-4.648 3.627 14.742 4.476 30.595 1.258 45.766 1.9461-.5441 3.8246-1.3059 5.6-2.271-.5501.0023-1.0009-.436-1.014-.986l-.069-4.943c0-1.65 1.4-3.191 2.421-4.317.145-.159.283-.311.407-.453 7.0513-8.1923 6.6643-20.4171-.891-28.147z" fill="#d0cfce"/><path d="m27.8635 36.364c-2.4853 0-4.5 2.0147-4.5 4.5s2.0147 4.5 4.5 4.5 4.5-2.0147 4.5-4.5-2.0147-4.5-4.5-4.5z" fill="#3f3f3f"/><path d="m44.2115 36.364c-2.4853 0-4.5 2.0147-4.5 4.5s2.0147 4.5 4.5 4.5 4.5-2.0147 4.5-4.5-2.0147-4.5-4.5-4.5z" fill="#3f3f3f"/><g fill="none" stroke="#000" stroke-width="2"><path d="m48.0235 56.664-.069-4.944c0-1.45 1.649-3.035 2.58-4.1 3.4344-3.9474 5.3151-9.0097 5.291-14.242 0-11.6-8.894-21.006-19.856-20.983-1.3183.0041-2.6329.1405-3.924.407-7.89 1.618-14.177 8.457-15.548 16.842-1.1269 6.4665.7263 13.0961 5.043 18.041.917 1.037 2.382 2.62 2.382 4.04l-.022 4.983" stroke-linecap="round" stroke-linejoin="round"/><path d="m27.8645 55.002v4.78" stroke-linecap="round" stroke-linejoin="round"/><path d="m33.5785 56.067v4.781" stroke-linecap="round" stroke-linejoin="round"/><path d="m44.2125 55.002v4.78" stroke-linecap="round" stroke-linejoin="round"/><path d="m39.0275 56.067v4.781" stroke-linecap="round" stroke-linejoin="round"/><path d="m33.0365 52.209 2.932-5.849 3.505 5.849" stroke-linecap="round" stroke-linejoin="round"/><circle cx="27.8645" cy="40.817" r="5" stroke-miterlimit="10"/><circle cx="44.2125" cy="40.817" r="5" stroke-miterlimit="10"/></g></svg>